<svg width="222" height="64" viewBox="0 0 222 64" fill="none" xmlns="http://www.w3.org/2000/svg">
<path d="M83.4122 17.3897C83.4122 18.3917 83.9153 19.2 84.9173 19.802C85.9194 20.4041 87.1317 20.8907 88.5503 21.2535C89.9688 21.6164 91.3874 22.0329 92.8059 22.4989C94.2245 22.9649 95.4368 23.7607 96.4389 24.8865C97.4409 26.0123 97.944 27.4556 97.944 29.2205C97.944 31.5751 97.0368 33.4596 95.2183 34.8782C93.3997 36.2967 91.074 37.006 88.2369 37.006C85.7091 37.006 83.5483 36.4534 81.7462 35.3442C79.9442 34.239 78.6658 32.7669 77.903 30.9318L81.7957 28.7009C82.2122 29.9463 82.9916 30.9318 84.1338 31.6617C85.2761 32.3875 86.641 32.7504 88.2369 32.7504C89.7255 32.7504 90.9544 32.4658 91.9235 31.8926C92.8925 31.3194 93.3791 30.4287 93.3791 29.2205C93.3791 28.2184 92.876 27.4102 91.874 26.8081C90.8719 26.2061 89.6596 25.7195 88.241 25.3525C86.8225 24.9855 85.4039 24.5649 83.9854 24.0824C82.5668 23.5999 81.3545 22.804 80.3524 21.6948C79.3504 20.5855 78.8473 19.167 78.8473 17.4391C78.8473 15.1917 79.7215 13.3361 81.4699 11.8846C83.2184 10.4289 85.408 9.70312 88.039 9.70312C90.1503 9.70312 92.0266 10.1773 93.6719 11.1299C95.3172 12.0825 96.5543 13.4062 97.3832 15.101L93.5935 17.2288C92.6575 15.0144 90.8059 13.9052 88.039 13.9052C86.7565 13.9052 85.6678 14.2062 84.7689 14.8124C83.8617 15.4268 83.4122 16.2845 83.4122 17.3897Z" fill="#C60000"/>
<path d="M124.48 33.0677C121.816 35.6986 118.579 37.014 114.772 37.014C110.966 37.014 107.737 35.6986 105.09 33.0677C102.443 30.4368 101.119 27.1997 101.119 23.3605C101.119 19.5173 102.443 16.2843 105.09 13.6534C107.737 11.0225 110.966 9.70703 114.772 9.70703C118.579 9.70703 121.816 11.0225 124.48 13.6534C127.143 16.2843 128.475 19.5214 128.475 23.3605C128.48 27.2038 127.148 30.4409 124.48 33.0677ZM114.772 32.6017C117.37 32.6017 119.548 31.7192 121.313 29.9543C123.077 28.1894 123.96 25.9914 123.96 23.3605C123.96 20.7296 123.077 18.5317 121.313 16.7668C119.548 15.0018 117.366 14.1194 114.772 14.1194C112.212 14.1194 110.047 15.0018 108.282 16.7668C106.517 18.5317 105.634 20.7296 105.634 23.3605C105.634 25.9914 106.517 28.1894 108.282 29.9543C110.047 31.7192 112.212 32.6017 114.772 32.6017Z" fill="#C60000"/>
<path d="M148.162 9.70703C151.795 9.70703 154.892 11.0307 157.457 13.6781C160.018 16.3255 161.3 19.5544 161.3 23.3605C161.3 27.1667 160.018 30.3955 157.457 33.0429C154.896 35.6903 151.799 37.014 148.162 37.014C143.87 37.014 140.599 35.3027 138.348 31.8759V46.7253H133.833V10.3792H138.348V14.8451C140.599 11.4184 143.87 9.70703 148.162 9.70703ZM147.589 32.6553C150.183 32.6553 152.364 31.7646 154.129 29.9832C155.894 28.2017 156.777 25.9956 156.777 23.3647C156.777 20.7337 155.894 18.5276 154.129 16.7461C152.364 14.9647 150.183 14.074 147.589 14.074C144.958 14.074 142.76 14.9647 140.995 16.7461C139.23 18.5276 138.348 20.7337 138.348 23.3647C138.348 25.9956 139.23 28.2017 140.995 29.9832C142.76 31.7646 144.962 32.6553 147.589 32.6553Z" fill="#C60000"/>
<path d="M188.195 0H192.711V36.342H188.195V31.876C185.944 35.3028 182.673 37.0141 178.385 37.0141C174.752 37.0141 171.651 35.6904 169.09 33.043C166.529 30.3956 165.247 27.1668 165.247 23.3606C165.247 19.5545 166.525 16.3256 169.09 13.6782C171.651 11.0308 174.748 9.70714 178.385 9.70714C182.678 9.70714 185.948 11.4185 188.195 14.8452V0ZM178.954 32.6554C181.585 32.6554 183.783 31.7647 185.548 29.9833C187.313 28.2018 188.195 25.9957 188.195 23.3648C188.195 20.7338 187.313 18.5277 185.548 16.7463C183.783 14.9648 181.585 14.0741 178.954 14.0741C176.356 14.0741 174.179 14.9648 172.414 16.7463C170.649 18.5277 169.766 20.7338 169.766 23.3648C169.766 25.9957 170.649 28.2018 172.414 29.9833C174.179 31.7647 176.36 32.6554 178.954 32.6554Z" fill="#C60000"/>
<path d="M217.485 10.3379H222V36.2964H217.485V32.5604C215.65 35.5006 212.846 36.9727 209.072 36.9727C206.025 36.9727 203.588 36.0119 201.753 34.0903C199.918 32.1686 199.002 29.5666 199.002 26.2759V10.3379H203.518V26.0161C203.518 28.1274 204.087 29.7645 205.229 30.9233C206.371 32.082 207.947 32.6635 209.955 32.6635C212.206 32.6635 214.021 31.9625 215.406 30.5604C216.792 29.1584 217.485 27.0017 217.485 24.0945V10.3379Z" fill="#C60000"/>
<path d="M37.2759 58.7923C41.5436 57.9615 42.6351 45.1241 39.7139 30.1191C36.7927 15.1142 30.965 3.62379 26.6973 4.45463C22.4297 5.28546 21.3382 18.1229 24.2594 33.1278C27.1806 48.1328 33.0083 59.6232 37.2759 58.7923Z" stroke="#C60000" stroke-width="1.35582" stroke-miterlimit="10"/>
<path d="M56.6899 44.0995C58.6502 40.2188 49.1784 31.4854 35.5339 24.5928C21.8895 17.7003 9.23925 15.2587 7.2789 19.1394C5.31855 23.0201 14.7904 31.7535 28.4349 38.6461C42.0793 45.5386 54.7295 47.9802 56.6899 44.0995Z" stroke="#C60000" stroke-width="1.35582" stroke-miterlimit="10"/>
<path d="M36.8265 37.8325C48.8843 28.4361 56.4925 18.0387 53.82 14.6093C51.1475 11.1798 39.2063 16.0171 27.1485 25.4135C15.0908 34.8099 7.48252 45.2073 10.155 48.6368C12.8275 52.0662 24.7687 47.229 36.8265 37.8325Z" stroke="#C60000" stroke-width="1.35582" stroke-miterlimit="10"/>
<path d="M8.32435 22.7522C10.374 22.7522 12.0357 21.0906 12.0357 19.0409C12.0357 16.9912 10.374 15.3296 8.32435 15.3296C6.27465 15.3296 4.61304 16.9912 4.61304 19.0409C4.61304 21.0906 6.27465 22.7522 8.32435 22.7522Z" fill="#C60000"/>
<path d="M52.8845 19.0413C54.9342 19.0413 56.5958 17.3797 56.5958 15.33C56.5958 13.2803 54.9342 11.6187 52.8845 11.6187C50.8348 11.6187 49.1732 13.2803 49.1732 15.33C49.1732 17.3797 50.8348 19.0413 52.8845 19.0413Z" fill="#C60000"/>
<path d="M40.5118 59.5187C41.3528 57.6494 40.5191 55.4522 38.6498 54.6112C36.7805 53.7702 34.5833 54.6039 33.7424 56.4732C32.9014 58.3425 33.735 60.5397 35.6043 61.3807C37.4736 62.2217 39.6708 61.388 40.5118 59.5187Z" fill="#C60000"/>
<path d="M31.8164 62.6325C48.8357 62.6325 62.6326 48.8356 62.6326 31.8162C62.6326 14.7969 48.8357 1 31.8164 1C14.797 1 1.00012 14.7969 1.00012 31.8162C1.00012 48.8356 14.797 62.6325 31.8164 62.6325Z" stroke="#C60000" stroke-width="1.35587" stroke-miterlimit="10"/>
</svg>
