<svg width="24" height="24" viewBox="0 0 24 24" fill="none" xmlns="http://www.w3.org/2000/svg">
<path d="M21.0001 10C21.0001 17 12.0001 23 12.0001 23C12.0001 23 3.00012 17 3.00012 10C3.00012 7.61305 3.94833 5.32387 5.63616 3.63604C7.32399 1.94821 9.61317 1 12.0001 1C14.3871 1 16.6763 1.94821 18.3641 3.63604C20.0519 5.32387 21.0001 7.61305 21.0001 10Z" stroke="white" stroke-opacity="0.6" stroke-width="1.5" stroke-linecap="round" stroke-linejoin="round"/>
<path d="M12.0001 13C13.657 13 15.0001 11.6569 15.0001 10C15.0001 8.34315 13.657 7 12.0001 7C10.3433 7 9.00012 8.34315 9.00012 10C9.00012 11.6569 10.3433 13 12.0001 13Z" stroke="white" stroke-opacity="0.6" stroke-width="1.5" stroke-linecap="round" stroke-linejoin="round"/>
</svg>
