<svg width="38" height="522" viewBox="0 0 38 522" fill="none" xmlns="http://www.w3.org/2000/svg">
<rect x="28" width="0.5" height="471" fill="url(#paint0_linear)"/>
<path d="M17 470.604L16.406 470.604C16.502 469.716 16.208 469.032 15.524 468.552C14.828 468.06 13.616 467.814 11.888 467.814L4.4 467.814L4.4 460.056L17 460.056L17 460.704L5.012 460.704L5.012 467.148L11.906 467.148C13.742 467.148 15.074 467.436 15.902 468.012C16.73 468.588 17.096 469.452 17 470.604ZM8 450.117L8 449.541L17 449.541L17 450.171L9.08 450.171L17 456.291L17 456.867L8 456.867L8 456.219L15.92 456.219L8 450.117ZM17.198 442.499C17.198 443.831 16.748 444.947 15.848 445.847C14.948 446.747 13.832 447.197 12.5 447.197C11.168 447.197 10.052 446.747 9.152 445.847C8.252 444.947 7.802 443.831 7.802 442.499C7.802 441.623 8.006 440.831 8.414 440.123C8.822 439.415 9.368 438.893 10.052 438.557L10.358 439.079C9.77 439.367 9.302 439.817 8.954 440.429C8.594 441.041 8.414 441.731 8.414 442.499C8.414 443.651 8.81 444.617 9.602 445.397C10.382 446.177 11.348 446.567 12.5 446.567C13.652 446.567 14.624 446.177 15.416 445.397C16.196 444.617 16.586 443.651 16.586 442.499C16.586 441.731 16.412 441.047 16.064 440.447C15.704 439.835 15.23 439.373 14.642 439.061L14.948 438.539C15.632 438.887 16.178 439.415 16.586 440.123C16.994 440.831 17.198 441.623 17.198 442.499ZM8 430.339L8.594 430.339L8.594 433.669L17 433.669L17 434.317L8.594 434.317L8.594 437.647L8 437.647L8 430.339ZM8 420.747L8 420.117L17 420.117L17 420.747L14.588 420.747C15.38 421.107 16.016 421.653 16.496 422.385C16.964 423.117 17.198 423.939 17.198 424.851C17.198 426.147 16.748 427.251 15.848 428.163C14.936 429.075 13.82 429.531 12.5 429.531C11.18 429.531 10.07 429.075 9.17 428.163C8.258 427.251 7.802 426.147 7.802 424.851C7.802 423.939 8.042 423.117 8.522 422.385C8.99 421.653 9.62 421.107 10.412 420.747L8 420.747ZM15.416 427.731C16.196 426.939 16.586 425.973 16.586 424.833C16.586 423.693 16.196 422.727 15.416 421.935C14.624 421.143 13.652 420.747 12.5 420.747C11.348 420.747 10.382 421.143 9.602 421.935C8.81 422.727 8.414 423.693 8.414 424.833C8.414 425.973 8.81 426.939 9.602 427.731C10.382 428.511 11.348 428.901 12.5 428.901C13.652 428.901 14.624 428.511 15.416 427.731ZM6.308 415.665L5.768 415.665L5.768 411.219L6.308 411.219L6.308 415.665ZM8 410.373L8 409.797L17 409.797L17 410.427L9.08 410.427L17 416.547L17 417.123L8 417.123L8 416.475L15.92 416.475L8 410.373ZM8 395.011L8 394.381L17 394.381L17 395.011L12.806 395.011L12.806 401.059L17 401.059L17 401.707L8 401.707L8 401.059L12.194 401.059L12.194 395.011L8 395.011ZM8 384.639L8 384.063L17 384.063L17 384.693L9.08 384.693L17 390.813L17 391.389L8 391.389L8 390.741L15.92 390.741L8 384.639ZM17 371.296L17 372.088L12.5 376.372L17 376.372L17 377.002L12.5 377.002L17 381.286L17 382.078L12.32 377.614L8 381.898L8 381.106L12.14 377.002L8 377.002L8 376.372L12.14 376.372L8 372.268L8 371.476L12.32 375.778L17 371.296ZM7.80199 366.089C7.80199 364.769 8.26999 363.701 9.20599 362.885C10.142 362.057 11.252 361.643 12.536 361.643C12.68 361.643 12.782 361.649 12.842 361.661L12.842 370.031C13.958 369.959 14.864 369.545 15.56 368.789C16.244 368.033 16.586 367.103 16.586 365.999C16.586 365.243 16.43 364.577 16.118 364.001C15.794 363.413 15.368 362.975 14.84 362.687L15.164 362.129C15.788 362.489 16.286 363.011 16.658 363.695C17.018 364.367 17.198 365.135 17.198 365.999C17.198 367.367 16.76 368.489 15.884 369.365C14.996 370.241 13.868 370.679 12.5 370.679C11.168 370.679 10.052 370.247 9.152 369.383C8.25199 368.519 7.80199 367.421 7.80199 366.089ZM8.41399 366.089C8.41399 367.193 8.774 368.117 9.494 368.861C10.202 369.593 11.12 369.989 12.248 370.049L12.248 362.291C11.084 362.375 10.154 362.777 9.45799 363.497C8.76199 364.205 8.41399 365.069 8.41399 366.089Z" fill="white" fill-opacity="0.6"/>
<rect x="18.3846" y="488.385" width="19.2308" height="33.0769" rx="9.61539" stroke="white" stroke-opacity="0.6" stroke-width="0.769231"/>
<rect width="1.53846" height="4.61538" rx="0.769231" transform="matrix(-1 0 0 1 28.7693 492.615)" fill="white" fill-opacity="0.6"/>
<defs>
<linearGradient id="paint0_linear" x1="28.25" y1="0" x2="28.25" y2="471" gradientUnits="userSpaceOnUse">
<stop offset="0.151856" stop-color="white" stop-opacity="0"/>
<stop offset="1" stop-color="white"/>
</linearGradient>
</defs>
</svg>
